<svg version="1.1" id="Aspose_Image_Optimizer" xmlns="http://www.w3.org/2000/svg" x="0" y="0" viewBox="0 0 256 256" style="enable-background:new 0 0 256 256" xml:space="preserve"><style>.st1{fill:#2373b2}</style><g id="WP_Image_Optimizer"><path style="fill:#196293" d="m113.8 149.3 20.7-26.1 53.8 63.7h-74.5z"/><path class="st1" d="m32.3 186.9 49.3-85.7 73.6 85.7H46.7z"/><circle class="st1" cx="116.7" cy="104.7" r="9.2"/><path class="st1" d="M198.1 147.8v53.9c0 1.2-1 2.1-2.1 2.1H24.6c-1.2 0-2.1-1-2.1-2.1v-121c0-1.2 1-2.1 2.1-2.1h114.6c1-5.1 2.6-10 4.8-14.5H24.6C15.5 64.1 8 71.5 8 80.7v121c0 9.2 7.5 16.6 16.6 16.6H196c9.2 0 16.6-7.5 16.6-16.6v-56.1c-4.6 1.3-9.5 2.1-14.5 2.2z"/><g><path class="st1" d="M196.3 141c-28.5 0-51.7-23.2-51.7-51.7s23.2-51.7 51.7-51.7S248 60.8 248 89.3 224.8 141 196.3 141zm0-91.7c-22.1 0-40.1 18-40.1 40.1s18 40.1 40.1 40.1 40.1-18 40.1-40.1-18-40.1-40.1-40.1z"/><path class="st1" d="m198.5 102.9-1.7-1.8c-1-1-.9-2.6.1-3.6l16.9-15.8c1-1 2.6-.9 3.6.1l1.7 1.8c1 1 .9 2.6-.1 3.6L202.1 103c-1.1 1-2.7.9-3.6-.1z"/><path class="st1" d="m224 75-12 .1c-1.6 0-2.4 1.9-1.3 3.1l11.1 11.9c1.1 1.2 3.1.5 3.2-1.1l.9-12c.1-1.1-.8-2-1.9-2zM182.8 82.4l1.8-1.7c1-1 2.6-.9 3.6.1L204 97.7c1 1 .9 2.6-.1 3.6l-1.8 1.7c-1 1-2.6.9-3.6-.1L182.7 86c-1-1.1-.9-2.7.1-3.6z"/><g><path class="st1" d="m188 80.7 1.7 1.8c1 1 .9 2.6-.1 3.6L172.7 102c-1 1-2.6.9-3.6-.1l-1.7-1.8c-1-1-.9-2.6.1-3.6l16.9-15.8c1.1-1 2.7-1 3.6 0z"/></g></g></g></svg>